/* XPM */
static char *ea22788cf38e4532b3feae6bd44e0d82PON4QjpEoCmYyhlK[] = {
/* columns rows colors chars-per-pixel */
"42 42 236 2 ",
"   c #020202",
".  c #0C0102",
"X  c #01040A",
"o  c #0C0B0C",
"O  c #060A07",
"+  c #140001",
"@  c #1A0102",
"#  c #17090B",
"$  c #040B12",
"%  c #170B12",
"&  c #081517",
"*  c #171617",
"=  c #0C110A",
"-  c #210203",
";  c #25050B",
":  c #360C16",
">  c #2A0B0E",
",  c #3A1E28",
"<  c #142227",
"1  c #292828",
"2  c #262A32",
"3  c #3B3339",
"4  c #333C3C",
"5  c #3B3C3B",
"6  c #383635",
"7  c #352E31",
"8  c #5A0000",
"9  c #430616",
"0  c #5A071B",
"q  c #4D0D18",
"w  c #670000",
"e  c #670511",
"r  c #701428",
"t  c #46292E",
"y  c #462C36",
"u  c #582C36",
"i  c #43353B",
"p  c #433C3C",
"a  c #4C3C3D",
"s  c #463337",
"d  c #543C3D",
"f  c #583438",
"g  c #51232E",
"h  c #64353A",
"j  c #72343B",
"k  c #6D2834",
"l  c #3B433D",
"z  c #43423D",
"x  c #4B403D",
"c  c #53423B",
"v  c #3C3D42",
"b  c #393E46",
"n  c #4C3541",
"m  c #433D43",
"M  c #4B3C42",
"N  c #493D49",
"B  c #543D43",
"V  c #5C3C44",
"C  c #573946",
"Z  c #653B46",
"A  c #763A49",
"S  c #723346",
"D  c #1B4046",
"F  c #344243",
"G  c #3C4343",
"H  c #3B484A",
"J  c #3C4B54",
"K  c #31494D",
"L  c #434344",
"P  c #4C4343",
"I  c #444A45",
"U  c #4B4B45",
"Y  c #44444A",
"T  c #4C434A",
"R  c #454B4A",
"E  c #4C4B4C",
"W  c #524243",
"Q  c #5B4445",
"!  c #53444B",
"~  c #5B434A",
"^  c #544C4C",
"/  c #574949",
"(  c #4D514E",
")  c #48534B",
"_  c #53534D",
"`  c #4B4C52",
"'  c #484953",
"]  c #524C52",
"[  c #5D4C55",
"{  c #544853",
"}  c #4D5353",
"|  c #465558",
" . c #535253",
".. c #58575A",
"X. c #62444A",
"o. c #654549",
"O. c #684B54",
"+. c #645759",
"@. c #774E58",
"#. c #565B63",
"$. c #645A65",
"%. c #7B5C61",
"&. c #4B626B",
"*. c #5B6D78",
"=. c #4C7479",
"-. c #55757B",
";. c #57676E",
":. c #666A6E",
">. c #666973",
",. c #66737D",
"<. c #7A6A6A",
"1. c #960017",
"2. c #950208",
"3. c #A7050F",
"4. c #8D112A",
"5. c #AF102E",
"6. c #932631",
"7. c #B32530",
"8. c #D31B30",
"9. c #E81637",
"0. c #D02533",
"q. c #EA2B3B",
"w. c #984139",
"e. c #903545",
"r. c #B23143",
"t. c #D62C49",
"y. c #E52A46",
"u. c #894D5A",
"i. c #8E7079",
"p. c #A46C7C",
"a. c #577982",
"s. c #697C83",
"d. c #9C7D83",
"f. c #A67883",
"g. c #949D9C",
"h. c #908A8D",
"j. c #A49699",
"k. c #B18690",
"l. c #9AA19E",
"z. c #A9A19F",
"x. c #999EA1",
"c. c #A89CA5",
"v. c #B89BA0",
"b. c #9DA3A4",
"n. c #9DABAE",
"m. c #97A7A9",
"M. c #96ABB3",
"N. c #9CB2B7",
"B. c #8FA3A8",
"V. c #A5A4A5",
"C. c #AAA5AC",
"Z. c #A3ACAC",
"A. c #ABACAB",
"S. c #A5A8A5",
"D. c #B3ACAD",
"F. c #B6A7A7",
"G. c #ACB0AF",
"H. c #B7B1AD",
"J. c #ACADB3",
"K. c #A3ADB1",
"L. c #B2ADB2",
"P. c #BEACB1",
"I. c #A4B2B4",
"U. c #ACB3B4",
"Y. c #A2B2BA",
"T. c #ABB5BB",
"R. c #ACB9BD",
"E. c #A6BAB8",
"W. c #B4B4B4",
"Q. c #BAB4B5",
"!. c #B2BAB4",
"~. c #B2B6BB",
"^. c #B3BBBB",
"/. c #BCBBBC",
"(. c #BBB7BA",
"). c #CA97A4",
"_. c #C7AEB3",
"`. c #DAACB9",
"'. c #C4B4B4",
"]. c #C3BBBD",
"[. c #C7B7BA",
"{. c #D9B5BD",
"}. c #CAAAAF",
"|. c #E6B5BC",
" X c #ECB1BB",
".X c #B2C1B7",
"XX c #E3C1BF",
"oX c #97BCC2",
"OX c #A5BBC2",
"+X c #ACBCC2",
"@X c #ADB7C1",
"#X c #B4BEC4",
"$X c #BCBDC2",
"%X c #C5BDC4",
"&X c #D9BEC2",
"*X c #ECBAC2",
"=X c #E6BAC5",
"-X c #F3BBC4",
";X c #F7BCD0",
":X c #ADC1C5",
">X c #A9C6C8",
",X c #B5C2C4",
"<X c #BBC3C3",
"1X c #BBCBCD",
"2X c #B8C6C9",
"3X c #B7CAD2",
"4X c #B7D2D6",
"5X c #A9CED5",
"6X c #9CC4C3",
"7X c #C3C5C4",
"8X c #C6C8C8",
"9X c #D8C2C5",
"0X c #C3CDD1",
"qX c #CACFD3",
"wX c #DACDD1",
"eX c #C3D1D4",
"rX c #C4D5DB",
"tX c #CAD5DA",
"yX c #CCD7D5",
"uX c #D5D6D9",
"iX c #E4C2C4",
"pX c #EAC7CB",
"aX c #F3C3CA",
"sX c #FDC3CC",
"dX c #F4C8CA",
"fX c #EBCCD3",
"gX c #FDCCD4",
"hX c #F6C8D3",
"jX c #F9D4D8",
"kX c #EBD4D3",
"lX c #FFE1DE",
"zX c #C8DEE6",
"xX c #FFDBE1",
"cX c #D3E0E1",
"vX c #C7E4EA",
"bX c #F5E3E5",
/* pixels */
"Z.<X~.!.      # . . + . .       _.'.D.7XZ.m.tXn.T.%X. . % . . . + . . %     <XS.^.Z.",
"$XZ.      _ _ 7 d ~ B Q M E ]   W W P V.yXI.T.R.J.C.% ^ i M / Q ~ B O.s ! o   O l.<X",
"~.X   ..6 1 # + - + > + W p L Y O j./.A.Q.L.R.T.~.  } 5 ^ B + + + + + > s i ^ o * l.",
"U.* 5 p / # 9XpXiXjXfXpX. +.6 E   ( _ 5 ! m v R 4   H l p . iXxXjXjX{.fX; a P 6   G.",
"<X  P / + }.dXaX*XgX=XpX9X. W _ O     . * . . # & O } 1 = kX|.aX|.gXgXpX}.@ W P o 7X",
"A.  7 # {.jXaXsXgX*XaXiXkX+ /   G R  .P 3 M ~ 3 l )   _ # F.dXsXgX XaXaXjXpX. W   D.",
"!.  +.. iXjX X X-X XaXhXpX+ + / P 5 L ! X.X.P P s / ( O . lXjX|.sXsXsXaX{.pX@ s . H.",
"!.  x + jX*XsXsXsXgXaX=XfX+ y W a / ^ p B d i / X.f s c - XXpXiX-XsX-XgXhXfX+ Q . V.",
"S.O / + hX*XgX-X;XaXpXjX+ X.d O.f V ~ W z z d Q X.h h o.u + jXkX*XgX|.gXfXiX+ a + D.",
"!.  . lX=XhX*X=XpX@ @ + ~ O.V g Z Z X.Q U U Q o.f u k A u.d . . + : pXpXiXfXbX. . 8X",
".XS.  . @ hX=XhXfX. [.# s s %.%.A A V P P U U Q A e.u.S u X.  7X'.. kXkX[.% . o ^ Q.",
"!..XD.W + + @ + . % C.  P O.t g A A V x p z z d u.S S h Z B   m.uXo o   o   uXm /.5 ",
"l.!.W.].+.a %XL.} 2Xn.& p s O.i.A o.o.W z z W X.u @.u.A a Y < 4X3XY.n.H tXK.0Xv J.4 ",
".X<Xl.wX8Xc.C.#X3X>XE.X R [ O.f Z Z X.W z z Q O.X.o.V O.{ | X >X4X4XvXN.| F #X| | Z.",
"E.m.yXV.c.%X2XY.4X6X>XO ) +., O.d B W W a a W Q O.t n { ' | $ 5X5XoX5XvXK &.>XF H 2X",
"I.I.^.U.$XJ.@X*.=.=.=.-.:.$.i.%.W P P P W B a a M i h.>.;.*.-.=.=.a.=.D oX>XE.T.U.U.",
"#X^.K.T.+XY.Y.OXOXOXM.X '  .] p z _ 5   .     m ] Y ' J J K & 5XzX3XM.N.+XeXn.$X(.j.",
"J.J.$XT.tXY.OX*.*.*.s.,.;.#.>.:.I 6 U   Q.bX  ..v Y >.,.*.&.a.-.&.&.s.@XB.I.8XD.'.9X",
"$X$XJ.0X#XY.+XN.3XrX@XX Y #.' Y ( U ^ ^   . [ T { ' m b #.J $ zXOX3XM.+X0X^.V.  . . ",
"L.J.U.T.2X1X+XzX@XB.+X< H 2 Y L 7 +.7 s * . B ! ! T $.Y 2 | $ 3XM.:XY.K.T.x.o . [.. ",
"Q.A.8Xv #XtXR.+XT.1XX 4   Y ..E ^ s +./ y C C ~ n N 3 $. .X #.X rX+X2X2X^.(.# h.h.+ ",
"%XQ.$Xv Z.0Xm.1XeXR.X G :.  O 3 +.7 a s , n C s [ [ [   o ' ` X 0Xm.T.uX/.  i.[.. F.",
"V.Q.W.W.^.8Xg.1X0Xm.$ } 2 ..5 % . . ~ ~ y C y n . # . ] ] v Y   R.J H ^./.. wXj.+ '.",
"Q.(.A.W.U.^.,XK.R.,X  6  .z ^ p T M . . % . # . { T T 3  .L 6 $ R.T.0XL.% h.i.. P.P.",
"D.].z..XZ.U.<XI.U.U.O }  .1  .p ] T m m ! 3 +.i ^ m 5 E E R l   I.g.uXC.. &X_.+ F.F.",
"H.D.8X7X4 R H F eX,X  G 5  .U E 3 Y L  .] T ] T L E E R l R I O U.cXV.F.@ k.d.+ 9X'.",
"Q.V.A.G.U.^.R.^.4 H & G I     z Y  .E 6 L #.*  .5 ..5     l )   yX!.C.[.+ =XiX+ h.F.",
"(.8XA.Z.8Xb.I.eXH eXX ) ` 6 E O       ( G 5  .  O     5 } R 4 = ^.l.].[.- f.f.+ <.j.",
"V.W.<XR.x.,X1XrX+X2XX F R R 6 E  .L L   5 (   L G R L L L ( G   yX^.P {.@ `.`.@ z.H.",
"/.b.<XR n.cX2X+X,X:XX $ H 5 ..5 5 6 E   z z   E R G L  .L 1 1 X l.R P v.- k.k.@ '.].",
"/.^.Z.F 1X+XE.rX:Xn.$ 4   X   _ U / ^   p ^   ^ L E 6 o   * 1   <XA.wX@ p.|.).- F.H.",
"A./.G ^.1XR.E.+X:X2XX F ..5 ]     . . / P x / . .   O 7 L ^ L o . . @ `.|.p.: f [.H.",
"W.(.$XZ.rX:XN.:XvXB.& F v ..m m ] 7 B C C X.f V a  .F F E ] v   &X).`.f.|.=X+ _.Q.].",
"m L.~.#XtXY.OXOXE.zXX H :.3 3 $.i O.f 9 q 9 9 h g W H H P ! G O =Xp.;X=Xk.+ P.P.D.D.",
"%XJ.^.I.B.:X:XM.4XOX& ' 1 E ..y Z 9 0 r 0 r e.8 g u P E M N G   fXp.`.- + 9Xc.]./.8X",
"Q.$Xb.U.eXN.3X4X:XB.X H v ..i X.0 e 4.7.4.4.4.4.r q t / n ~ Y   + : ; y [.[.D.Q.E h.",
"C.E <XT.T.rX3XrX+X3XX #.Y m [ : r 1.t.8.1.5.1.5.4.e q f V [ E   F.j.[.'.L.A./.U.I.8X",
"$XJ.J.x.,X#X+X@XrX+XX 2 ` ] 7 : 4.2.y.9.3.t.y.3.r.4.0 h Z ~ p   ].%XQ.%XV.A.!.U.U.Z.",
"/.C.$XqXn.,XR.+XY.& X ` m T m @.w 0.9.9.y.8.8.y.t.r.k j Z a 5 =   A.m U.Z.<X^.^.<X<X",
"(.J.Y U.T.2X+XT.X | H Y Y L ^ f 7.0.3.9.0.2.y.8.t.r.6.j o.P I 4 E X W.L 8Xb.^.G.I g.",
"W.Q.` ~.U.tXeXX H H H Y Y L P f w.3.q.8.7.2.0.5.7.7.e.j Q l I G E 7 = U.W.!.W.G.Q.Q.",
"Q.7Xh.<XT.U.#X  X X X X X   . @ w.8 8.8.w 8 7.w w 6.e.; .   O   O     A.Q.!.Q.Q.Q.Q."
};
