/* XPM */
static char *c630b7139e374d94c2a590e2358d04726P6NIQPccRrVW8Oo[] = {
/* columns rows colors chars-per-pixel */
"42 42 10 1 ",
"  c None",
". c black",
"X c #4D0018",
"o c #464646",
"O c #990030",
"+ c #ED1C24",
"@ c #546D8E",
"# c #BF7884",
"$ c #FFA3B1",
"% c #FFBDC8",
/* pixels */
"    ............          ............    ",
"  ...oooooooooo.          .oooooooooo...  ",
" ..ooo......oooo.        .oooo......ooo.. ",
" .ooo.%%%%%%.ooo.        .ooo.%%%%%%.ooo. ",
" .oo.%%%%%%%%.oo..........oo.%%%%%%%%.oo. ",
" .o.%%%%%%%%%.o.oooooooooo.o.%%%%%%%%%.o. ",
" .o.%%%%%%%%%..oooooooooooo..%%%%%%%%%.o. ",
" .o.%%%%%%%%%.oooooooooooooo.%%%%%%%%%.o. ",
" .o.%%%%%%%%.oooooooooooooooo.%%%%%%%%.o. ",
" ..%%%%%%...oo+ooo+oooo+ooo+oo....%%%%%.. ",
"  ...%%%%. .ooo+o+oooooo+o+ooo.  .%%%...  ",
"    ...... .oooo+oooooooo+oooo.  .....    ",
"           .ooo+o+oooooo+o+ooo.           ",
"           .oo+ooo+oooo+ooo+oo.           ",
"           .oooooooooooooooooo.           ",
"       @@@@@@@@@oooooooooo@@@@@@@@@       ",
"           .ooooooo....ooooooo.           ",
"       @@@@@@@@@ooo.%%.ooo@@@@@@@@@       ",
"           .oooooooo..oooooooo.        ...",
"           .oooooooo..oooooooo.       ..$.",
"          .o.oooooooooooooooo.o.      .##.",
"          .oo..ooooOOOOoooo..oo.     .#$. ",
"          .oooo...OooooO...oooo.     .$#. ",
"          .ooooooo......ooooooo.    .##.  ",
"          .oooooooooooooooooooo.    .$$.  ",
"          .oooooooooooooooooooo.    .##.  ",
"          .oo..oooooooooooo..oo.    .$$.  ",
"          .oooo....oooo....oooo.    .##.  ",
"          .oooooooo.oo.oooooooo.    .$$.  ",
"          ..ooooooo.oo.ooooooo..    .##.  ",
"          .o...oooo.oo.oooo...o.   .#$$.  ",
"          .oooo....oooo....oooo....$$#.   ",
"          .oooooooooooooooooooo.$#$#$$.   ",
"          .ooooooooXXXXoooooooo.$#$$#.    ",
"          .ooooooXXOOOOXXoooooo.$#$..     ",
"          .oooooXOO+OOOOOXooooo....       ",
"          .ooooXOO+OOOOOOOXoooo.          ",
"          .ooooXOO++O++O+OXoooo.          ",
"         ..oooooX+++++++++ooooo..         ",
"        .ooooooo++X++O++++ooooooo.        ",
"       .oooooooo+o+++X+o+o+ooooooo.       ",
"       .........+.++..+..++........       "
};
