/* XPM */
static char *_59b4cc9dca54eef8b6885064db57f79FlHaMdn1ML6squg1[] = {
/* columns rows colors chars-per-pixel */
"42 42 256 2 ",
"   c #030201",
".  c #0C0101",
"X  c #000A00",
"o  c #03010B",
"O  c #090709",
"+  c #140001",
"@  c #1C0102",
"#  c #13020C",
"$  c #170707",
"%  c #001301",
"&  c #081800",
"*  c #010214",
"=  c #0B0113",
"-  c #01031B",
";  c #000A1C",
":  c #060517",
">  c #120012",
",  c #190715",
"<  c #0F1516",
"1  c #230001",
"2  c #2C0000",
"3  c #230A06",
"4  c #370002",
"5  c #260415",
"6  c #34110F",
"7  c #010224",
"8  c #030629",
"9  c #130C25",
"0  c #041627",
"q  c #0D1035",
"w  c #14262E",
"e  c #2A3C35",
"r  c #36393A",
"t  c #2E2F2D",
"y  c #21012A",
"u  c #513437",
"i  c #3F403B",
"p  c #4D433C",
"a  c #09184A",
"s  c #2A3745",
"d  c #373D4E",
"f  c #153B74",
"g  c #13336C",
"h  c #293675",
"j  c #2A3266",
"k  c #1E2450",
"l  c #5A3D46",
"z  c #4D3848",
"x  c #483B6D",
"c  c #394546",
"v  c #3A4855",
"b  c #294779",
"n  c #304971",
"m  c #1C4B75",
"M  c #444445",
"N  c #4A4A48",
"B  c #554A47",
"V  c #464E55",
"C  c #4A5556",
"Z  c #535354",
"A  c #585451",
"S  c #4C504F",
"D  c #6C494C",
"F  c #5E6E53",
"G  c #495564",
"H  c #425779",
"J  c #4C4C6D",
"K  c #67556D",
"L  c #59636A",
"P  c #51666F",
"I  c #6A6972",
"U  c #A07677",
"Y  c #48953B",
"T  c #439E41",
"R  c #6C8C55",
"E  c #5EA549",
"W  c #023997",
"Q  c #11398C",
"!  c #003DA7",
"~  c #04478B",
"^  c #034898",
"/  c #075296",
"(  c #184B95",
")  c #2B4F8C",
"_  c #064AA7",
"`  c #194CA7",
"'  c #0057A9",
"]  c #0F53B1",
"[  c #284EA2",
"{  c #326789",
"}  c #476B86",
"|  c #4A6A95",
" . c #57708C",
".. c #656E8D",
"X. c #5277A7",
"o. c #657AB1",
"O. c #655E8A",
"+. c #3E7BCE",
"@. c #B67983",
"#. c #AB7A8F",
"$. c #987E97",
"%. c #C57E84",
"&. c #6C889C",
"*. c #5786B3",
"=. c #7899B8",
"-. c #6E8EB3",
";. c #7DA9B6",
":. c #378CD6",
">. c #1F83E1",
",. c #3C93E8",
"<. c #3FA8F2",
"1. c #598BD9",
"2. c #559CD9",
"3. c #508DCC",
"4. c #6A9BC6",
"5. c #7A9ACB",
"6. c #6999D5",
"7. c #7A97DB",
"8. c #6C8EC8",
"9. c #79A5DA",
"0. c #79A9CB",
"q. c #5093EF",
"w. c #6B96E3",
"e. c #4BACFD",
"r. c #5DA1F4",
"t. c #64A9E8",
"y. c #7DC0EB",
"u. c #9A9A9B",
"i. c #918D95",
"p. c #BB8488",
"a. c #B98898",
"s. c #B49799",
"d. c #A89190",
"f. c #98AA9B",
"g. c #98B097",
"h. c #A7A79D",
"j. c #AFAD96",
"k. c #999AA5",
"l. c #859BB9",
"z. c #858EB2",
"x. c #A698A5",
"c. c #B899A7",
"v. c #B58CAC",
"b. c #9BA4A2",
"n. c #9AABA8",
"m. c #9BB3AA",
"M. c #96AAB6",
"N. c #9BB6B7",
"B. c #8DA7B0",
"V. c #A4ACA5",
"C. c #A3ADAD",
"Z. c #ACABAC",
"A. c #A7A5A7",
"S. c #B6A8A9",
"D. c #A8B4AB",
"F. c #B5B8AC",
"G. c #ABADB3",
"H. c #A6A9B6",
"J. c #B4ADB4",
"K. c #B8AAB6",
"L. c #A4B3B3",
"P. c #ABB3B3",
"I. c #ADB9B5",
"U. c #A4B4BB",
"Y. c #ABB5BB",
"T. c #A5BBBB",
"R. c #ACBABA",
"E. c #B3B4B3",
"W. c #B4BBB5",
"Q. c #BCBDB5",
"!. c #BBB3BC",
"~. c #B3BABB",
"^. c #BBBBBB",
"/. c #B6B3BA",
"(. c #D8869A",
"). c #C8959B",
"_. c #C88B91",
"`. c #E79A9C",
"'. c #D0A99A",
"]. c #D79BA5",
"[. c #CD93A7",
"{. c #E897B1",
"}. c #FD9CB7",
"|. c #ED95A7",
" X c #C7A9AB",
".X c #D9A5A9",
"XX c #C6A9B8",
"oX c #D6A9B6",
"OX c #C6B7B9",
"+X c #D8B5BA",
"@X c #D6B7A6",
"#X c #E8A5A8",
"$X c #EAA9B7",
"%X c #FBAABA",
"&X c #F7B5B9",
"*X c #EEB4B5",
"=X c #9BD18E",
"-X c #ADD691",
";X c #ABC3BC",
":X c #A6C3BA",
">X c #B6C4BC",
",X c #B7C4BA",
"<X c #B4CBAE",
"1X c #ABE6A8",
"2X c #C2C5BD",
"3X c #D0C7BE",
"4X c #F4C2B9",
"5X c #8992C5",
"6X c #9AB7C4",
"7X c #8EAACB",
"8X c #B5AAC3",
"9X c #A9BAC4",
"0X c #B2BCC3",
"qX c #BABCC3",
"wX c #B7B8C6",
"eX c #A8B4C9",
"rX c #8FAEEC",
"tX c #969DE1",
"yX c #C6ADC3",
"uX c #D9ADC5",
"iX c #C6BAC9",
"pX c #D7BAC5",
"aX c #CCBAD2",
"sX c #E7AAC4",
"dX c #FEADC5",
"fX c #E9BAC6",
"gX c #FAB5C7",
"hX c #E0BDD5",
"jX c #AAC5C8",
"kX c #B4C2C3",
"lX c #BCC4C3",
"zX c #BBC5CC",
"xX c #BCCCCB",
"cX c #B5C6CA",
"vX c #B9D4CE",
"bX c #ADC7D0",
"nX c #B5C9D4",
"mX c #BBD4D8",
"MX c #AED5D9",
"NX c #C3C4C4",
"BX c #C9C8CA",
"VX c #C5D4C8",
"CX c #C5C7D3",
"ZX c #D4C8D5",
"AX c #C6D6D9",
"SX c #D5DCD5",
"DX c #D4D0CD",
"FX c #F8C5CA",
"GX c #EAC4D2",
"HX c #F2CDD1",
"JX c #C9D6E2",
"KX c #EDCFE1",
"LX c #D2F0F4",
"PX c #FCF9F8",
"IX c #FBF0EE",
"UX c #EEE7DF",
/* pixels */
"K.J./.P.kXkXb.W.W.P.W.lXC.I.m.lXyXXXZ.VXg.<Xh.OXXXyXeXnXM.nXn.E.E.G.G.W.J.Q.V.Q.E.E.",
"!./.NXP.I.C.lXC r L t ~.P.I.L.r z K M f.<XV.3XS.XXaXH.9XbXjXxXI.P.^.~.E.NXt N V.E.E.",
"A.E.V.M V.W.lXb.BXE.A.N BXC.lX0XG.G.:X;X<Xg.F.OXK.x.G mXbX:Xn.V.P.0XzXzXP.~.E.^.E.E.",
"Q.F.F.VX,Xe D.>XZ.Z.KX!.A.d c CXv 0 O X X X   = = 9 ; M.6XjXn.>X0XY.Y.L.SXlXP.b.E.E.",
"F.h.F.f.V.I.VXP.BXZX!.ZXK.wXqX* - H } 7X;.} ....z.-.X.a 7 ; ; ; * 9X0X0XM.0XP.lXI.W.",
"h.SXh.VXD.c e c M !.iXx.!.!.o I O.-. .-.5.-.-.8.5.tXrX*.-.5X5Xz.z.0 JXM.cXzXCXV I.W.",
"2Xu.D.,Xf.>XlX~.Z.S BXM lXP.< L O.O...H X.X.X.9.6.w.3.rX7.tX5Xz.l.; 9XP v B.U.c R.I.",
"J.^.P.P.>XkXL.I.~.~.V.D.,XX X % o , : 8 ..H X.| X.6.6.9.7.o.tX5Xl.-.0 * 9Xv G R.R.R.",
"8XwXH.qXY.0XR.kXC.,XD.X % % % %   @ d.d., o -  .} *.-.4.5.5.5.-.=.=.; ; nXM.jXT.kXn.",
"K.8XH.wXJXzX0XL.I.b.VX% X 1X=X%   3 @X4Xp.).c.= ..v  .} -.4.4.9.-.-.M.&.; 9XmXT.c ~.",
"8XaXiXH.JX9XM.0X~.VXX X X g.R & & . '.#X&X|.$Xa.5 o P &.} 9.3.4.-.7Xl. .* bXcXcXC L.",
"iXwX8XG U.0Xv kXP.E.X X & <XF R j.3 4X`.}.%X%X).+ # o G  .{ y.4.=.H ; 0 M.jXnXL Y.V ",
"k.CXH.AXL s zXG.M SX. . .   &   . @ FX}.}.}.|.).s.h.< L  .| { X. . .; * AX9XJXw P.S ",
"W.>XC.lXC.R.P.!.. + s.s.s.+ + + 3 1 (.gX|.%XFX+ O X X X ; ..o.|  .0 nXmXs C U.L S L.",
"D.f.I.,XI.>XG.!.+ @ oXfX@.].1 )._.$XdX|.%X`.@XX =X=X-XX   . K - * eXbXJXs c AXc c ~.",
"<Xg.<XD.I.C.^.K.# @ fX{.gX$XfX.X*X#X%X|.%X1 . & E Y -XX + OX. wXwX9XV c zXAXk.^.qXA.",
"m.:X>Xb.NX~.C.!.. @ sX$X$XfX+ + 1 *X*X'.2 @ X -XT Y % . 1 +X  mXcXCXH.CXH.BX!.K.K.K.",
":X:XI.P.~.P.Y.~.# + $XgX].a.+ + 2 ).'.@X1 1   -X1X=XX @ 2 +XO jX9XzX0XwXJ.BXA.OXS.OX",
"~.~.~.lXzXkX;XI.  + .X*XgX_.1 1 1 6 .X@.2 2 6   % X + _.{.uX0 jXN.U.U.L.R.wXk.iXI i.",
"J.G.qXk.xXvX:X>X  + fX*X.X#X2 p.[.a.fXgX(.(.p.d.d.j..X(.gXsX* JXN.jXjXm.N.kXkXG.b./.",
"yXK.0XC T.vXm.VX  . @ U ]._.%.FXoXGXsX{.gX}.%X&XFX).`.dX{.sXo JXAXN.N.mXT.n.xXL.kXkX",
"yXK.qXC N.vXn.,XDXOX.  Xs.a.].1 # # 1 4 }.dX%X2 $X$XKX(.dXoX. P.cXT.T.vXm.;XAXT.n.n.",
"XXXX~.f.:X;XP.J.!.J./.o o = v.v.x.i.5 2 4 4 2 2 p.].@.(.#X1  XF.W.c C xXm.G e vXvXcX",
"XXOXb.VXm.V.NXK.OXiX* ; - J 8 7 - ; $.uXa.#.XXd.c.a.oX1 @ @ '.S.OXZ.BXlXC.I.v cXn.L.",
"S.^.W.b.,X  . 5 # : 8 n m f ) f m j q : = : * 7 - 9 * = . . 3 + @ @ pXK.Z.E.AXxXL.m.",
"E.,XW.,X  . @ oXKXk.8 *.2.2.2.` ( b g n n j b g ) a n 7 9 = S.+XoX@ @ @ . !.NXP.NX~.",
"P.b.    OX XfX@ > 8 8 *./ ~ :.] ^ w.1.1.) f 3./ :.2.t.f j - ZXpXHX$XoXfX+ . . Z.i.C.",
";XlX  . +X+X+X5 > - q 6./ ' e.W ! q._ _ ` ` q._ e.' ^ Q b 8 * . @ oXfXc.pX+   Z I u.",
"m.C.  6  XoXGX. O 0 8 *.~ ^ q.' ! q.] ,.q.W ] W >.^ ' ` h 7 9 . @ fX XGXpX.   ^.A.E.",
"nXR.. + .XHXs.$ b.jX; 5.6.1.3.] ] q.W ' 3.` ` ] e.<.<.~ j - NX. . 3 OXS.OX$ .   ^.^.",
"M.wX, @ *X@ $ X :X:X0 k g ) ( W W q.e.q.3.[ Q Q _ ~ :.a 8 d 2Xj.Q.    $       O A.E.",
"zX/.. + + @   D.vXB.6X0 8 b ) Q ` _ ^ ~ / ( Q [ 3.t.3.8 w qXV.<X,XSXW.^.  O   N ^.E.",
"J.iX!.G.ZXY.9XT.jXnXbX; ; 7 n *.6.( ^ ^ ' q.+.( f b 7 * o ~.:XvXS E.A.BXA.Z E.Z.E.^.",
"B h.G.Y.AXbX9XM.LX9XcXo w * &.LXg ( 1.r.^ ^ LX8.h J O . . ^.U.cXP.E.E.^.A.E.Z.Z.Z.Z.",
"E.W.zXzXB.M.mXU.Y.zX< o * ; s z.z.h 7.6.Q 1.7.h 7 > GXoXGX+ /.NXZ.NXV.E.DXZ.Z.BX^.NX",
"W.b.P.C.cX9X9XJX: o o x.i.8X: 9 y k j h g ) k x y 5 gX$X).HX+ S.E.A.Z t E.BXu.E.S i.",
"V.Z R.0X9XnXJXCXo > x.K.c.XXaX> > x x a ) j j y a.[.].&X&X).1 + O ^.A.NXZ.^.^.E.E.NX",
"^.P.BXn.9XcXY.A.# . s.s.+XpXhXhXuX# 9 7 7 8 8 = XX).gX#X*XFX+X.     NXu.E.Z.E.^.E.Z.",
"E.~.u.zXU.9X0XZ N B D l D l u l l , G.eXG eXnX9 z u D u u p u A N r r NXE.DXA.E.NXNX",
"J.BXr 0XwXwX/.N PXS.PX XPX XPXS.B   G.0XmXbX0Xo A S.PXOXPXh.PXP.IXNXM r E.Z.W.E.M u.",
"OXZ.M qXY.0XC M OXUXOXPXS.IXBXIXN   I.xXjXN.9X  S PXOXPXZ.PXC.PXE.PXZ S u.NXE.E.E.E.",
"OXJ.J.G.zXV V M u p p B u M p N N X I.vX:XN.:X  r Z M r Z C c c c Z t M S Z.NXE.E.E."
};
