/* XPM */
static char *_703aaf10c074ca78e4c6cd8632d97b9iYEG1GGwfQBcfFtX[] = {
/* columns rows colors chars-per-pixel */
"42 42 14 1 ",
"  c None",
". c black",
"X c #464646",
"o c #990030",
"O c #22B14C",
"+ c #A8E61D",
"@ c #2F3699",
"# c #546D8E",
"$ c #00B7EF",
"% c #709AD1",
"& c #B4B4B4",
"* c #D48794",
"= c #FFA3B1",
"- c white",
/* pixels */
"                                          ",
"                                          ",
"                                          ",
"                 ..........               ",
"               ..##%%###%%%......         ",
"              .####%%%%%%%%%%%%%%.        ",
"              .########%%%%%%%%%%.        ",
"             .......#####%%%%%%%%%..      ",
"           .......**...###%%%%%%%%..      ",
"           ..++...==***.####%%%%%%%%.     ",
"          ...+O...=====*..###%%%%%%#.     ",
"          ...+OO+.=====*...###%%%#..      ",
"          ........=====***.#######..      ",
"        ..***.....=====......####.        ",
"        ..==**.**======.+++...#..         ",
"        ..===========...OO+..=.           ",
"        ..====...===...+OO...=.           ",
"        ..===*...==*...+++...=.           ",
"        ..===*....=*.......*==.           ",
"        ..===*.***==********==.           ",
"        ...****===============.           ",
"          .****.....===.======.           ",
"           ...****......*****.            ",
"          ...@....*********...            ",
"     ......@@@@@@@................        ",
"    ...==*.$$$$@@@@@@@@@@@@...===....     ",
"  ..===....$@@$@@$$$@@$@$$$@@.======...   ",
"  ..===....$@@$@@$@@@@$@$@@@@....====..   ",
"  ..===....$@@$@@$@$$@@@$@@@@....====..   ",
"  ..===.  .$$$$@@$@@$@@@$$$@@. ...===...  ",
"  ..=...  .@@@@@@$$$$@@@@@$..    .......  ",
"  .....    ..@@@@@@@@@@@$$$..       ...   ",
"           ...@$$@@@@$$@@@...             ",
"           ...$-o@$$@o-$@@...             ",
"          ....@$$@$$@$$@..===.            ",
"        ...***...o@@o@@@..====.           ",
"        ..***==..@oo@@@.**====...         ",
"        ..**=====.......**=====...        ",
"       XXXXXXXXXX.     .XXXXXXXXXXX       ",
"       X-&-&-&-&X.     .X&-&-&-&-&X       ",
"      XX&-&-&-&-X.     .X-&-&-&-&-XX      ",
"     XXXXXXXXXXXX.     .XXXXXXXXXXXXX     "
};
