/* XPM */
static char *_d60a3a527624654b6e49d7b9ce68ecchcj2J4afrggTXFf6[] = {
/* columns rows colors chars-per-pixel */
"42 42 32 1 ",
"  c None",
". c #863F20",
"X c #873F20",
"o c #863F21",
"O c #873F21",
"+ c #863F22",
"@ c #864020",
"# c #864021",
"$ c #874021",
"% c #864121",
"& c #874121",
"* c #874122",
"= c #874222",
"- c #884022",
"; c #884122",
": c #894123",
"> c #884223",
", c #894223",
"< c #894324",
"1 c #8A4224",
"2 c #884424",
"3 c #894425",
"4 c #8A4426",
"5 c #8A4526",
"6 c #8C4627",
"7 c #8D4828",
"8 c #8E492A",
"9 c #914E2F",
"0 c #945032",
"q c #965334",
"w c #995638",
"e c #9C5A3C",
/* pixels */
"   ee:XXXXXXqee            eeee85XXXXX1   ",
"   ee:XXXXXX9ee            eeee8$XXXXX:   ",
"   e1:XXXXXX0ee            eeee6$XXXXXX   ",
"   e1qXXXXXXqqe            eeee::XXXXX$   ",
"   e1qXXXXXX:weeeeeeeeeeeeeeeewX6XXXXX:   ",
"   e1qXXXXXeeqeeeeeeeeeeeeeeeeq$XXXXXX8   ",
"   e1eXXXXXX$eeeeeeeeeeeeeeeee8XXXXXX$8   ",
"   ee1$XXXXXXqeeeeeeeeeeeeeeee$5XXXXX$1   ",
"   ee85XXXXX$weeeeeeeeeeeeeeee$XXXXXX88   ",
"   ee1$XXXXXXqe            eee:XXXXX$8e   ",
"   ee85XXXXXXwe            ee8$XXXXXX:e   ",
"   ee11XXXXXX0e            ee1$XXXXXX8e   ",
"   ee86XXXXXX0eeeeeeeeeeeeeee:5XXXXX$ee   ",
"   ee1wXXXXXXwweeeeeeeeeeeeee1$XXXXX$ee   ",
"   ee8qXXXXXX6qeeeeeeeeeeeeee$XXXXX$6ee   ",
"   ee1w:XXXXX$weeeeeeeeeeeeee:XXXXX$8ee   ",
"   ee8e$XXXXXXqeeeeeeeeeeeee86XXXXXX1ee   ",
"   eee8:XXXXX$w            e85XXXXX$8ee   ",
"   eee1$XXXXXXq            e16XXXXX$wee   ",
"   eee85XXXXXXw            e8:XXXXX$qee   ",
"   eee1:XXXXXXqeeeeeeeeeeeee86XXXXXXwee   ",
"   eee85XXXXXXweeeeeeeeeeeee86XXXXX$wee   ",
"   eee16XXXXXXweeeeeeeeeeeee85XXXXX$wee   ",
"   eee8:XXXXX$qeeeeeeeeeeeee16XXXXX$wee   ",
"   eee15XXXXXXweeeeeeeeeeeee8:XXXXX$qee   ",
"   eee86XXXXXXw            e86XXXXXXwee   ",
"   eee8:XXXXXXq            e85XXXXX$wee   ",
"   eee15XXXXXXw            e85XXXXX$wee   ",
"   eee85XXXXXXweeeeeeeeeeeee1:XXXXX$qee   ",
"   eee8$XXXXXXqeeeeeeeeeeeee86XXXXX$wee   ",
"   eee:$XXXXXXweeeeeeeeeeeee85XXXXXXwee   ",
"   eee:$XXXXXXeeeeeeeeeeeeee85XXXXX$wee   ",
"   eeeX5XXXXXXeeeeeeeeeeeeee1:XXXXX$qee   ",
"   eee$XXXXX$8e            e86XXXXX$wee   ",
"   eee$XXXXX$6e            e8:XXXXXXqee   ",
"   ee85XXXXXX:e            e85XXXXX$wee   ",
"   ee1$XXXXXX6eeeeeeeeeeeeee1:XXXXXXqee   ",
"   ee86XXXXXXweeeeeeeeeeeeee8:XXXXXXqee   ",
"   ee11XXXXXXqeeeeeeeeeeeeee1wXXXXXXeee   ",
"   ee8qXXXXXXeeeeeeeeeeeeeee8qXXXXX:eee   ",
"   ee1wXXXXXXeeeeeeeeeeeeeee1q8XXX:1eee   ",
"   ee8q1XXX88ee            e1e11Xe68eee   "
};
