/* XPM */
static char *_ed7f44a32a84c3fdac65494cc234c18GmsxzU742mHKcLMx[] = {
/* columns rows colors chars-per-pixel */
"42 42 238 2 ",
"   c #392A27",
".  c #462C17",
"X  c #4F3A1F",
"o  c #792B0A",
"O  c #7D320F",
"+  c #6B3815",
"@  c #7C3414",
"#  c #75351B",
"$  c #7D3B1D",
"%  c #76381A",
"&  c #6C2F0B",
"*  c #463C36",
"=  c #553E36",
"-  c #563D26",
";  c #653A25",
":  c #7E3D23",
">  c #713922",
",  c #354032",
"<  c #7D421D",
"1  c #7B4111",
"2  c #53432B",
"3  c #584536",
"4  c #5C513C",
"5  c #434432",
"6  c #644323",
"7  c #7B4325",
"8  c #7C452A",
"9  c #7E4A2B",
"0  c #784624",
"q  c #644939",
"w  c #794B3B",
"e  c #754B35",
"r  c #69523D",
"t  c #7B533C",
"y  c #7B5438",
"u  c #7D532D",
"i  c #3E3B42",
"p  c #6C3D43",
"a  c #574B45",
"s  c #7C5944",
"d  c #7B5744",
"f  c #6B524F",
"g  c #7E604B",
"h  c #77624E",
"j  c #6F635C",
"k  c #756259",
"l  c #7C6A65",
"z  c #67666E",
"x  c #8B2B1F",
"c  c #823515",
"v  c #853A16",
"b  c #8A3B16",
"n  c #833619",
"m  c #853C1C",
"M  c #8A3D1D",
"N  c #89351B",
"B  c #923A1C",
"V  c #93291C",
"C  c #823E22",
"Z  c #8A3E22",
"A  c #863622",
"S  c #933D25",
"D  c #953A2B",
"F  c #933D30",
"G  c #83401D",
"H  c #8C411E",
"J  c #874619",
"K  c #91421E",
"L  c #80410E",
"P  c #844223",
"I  c #8C4323",
"U  c #854925",
"Y  c #894A26",
"T  c #84442B",
"R  c #8B4529",
"E  c #844A2C",
"W  c #8B4A2C",
"Q  c #914524",
"!  c #934A25",
"~  c #944C2B",
"^  c #9A4D2A",
"/  c #974528",
"(  c #8C502F",
")  c #91512D",
"_  c #9B522D",
"`  c #925526",
"'  c #834B33",
"]  c #8C4C32",
"[  c #884735",
"{  c #9B4C32",
"}  c #974B37",
"|  c #855134",
" . c #8C5434",
".. c #8C543B",
"X. c #8E593D",
"o. c #885939",
"O. c #945434",
"+. c #9B5433",
"@. c #945C35",
"#. c #9A5B35",
"$. c #94553B",
"%. c #9D533A",
"&. c #945A3C",
"*. c #9C5C3C",
"=. c #A45A3B",
"-. c #A95B3B",
";. c #A65836",
":. c #A54E2D",
">. c #9D623D",
",. c #94633C",
"<. c #A0633E",
"1. c #B0613A",
"2. c #825C44",
"3. c #8C5C44",
"4. c #845D4A",
"5. c #8A5D4B",
"6. c #875648",
"7. c #935C43",
"8. c #9C5D42",
"9. c #925C4C",
"0. c #9D5D49",
"q. c #995546",
"w. c #8B5D54",
"e. c #835D5B",
"r. c #875754",
"t. c #995B56",
"y. c #984442",
"u. c #A15D42",
"i. c #AA5A46",
"p. c #A04F4B",
"a. c #8C6145",
"s. c #84614D",
"d. c #8A624E",
"f. c #846446",
"g. c #956344",
"h. c #9B6345",
"j. c #95614A",
"k. c #9A644A",
"l. c #9C6C4D",
"z. c #976949",
"x. c #8B6652",
"c. c #896859",
"v. c #9C6A52",
"b. c #936958",
"n. c #98715C",
"m. c #A26345",
"M. c #A3634B",
"N. c #A66A4E",
"B. c #AB694C",
"V. c #AA6045",
"C. c #A26C52",
"Z. c #A56654",
"A. c #A8745B",
"S. c #B27558",
"D. c #865F62",
"F. c #8A7468",
"G. c #997663",
"H. c #916262",
"J. c #AA7864",
"K. c #9E887D",
"L. c #AA8F7E",
"P. c #C5947C",
"I. c #9A9B8B",
"U. c #998E8C",
"Y. c #A48C86",
"T. c #B39A8B",
"R. c #A59C9B",
"E. c #A59A97",
"W. c #AF9A8E",
"Q. c #95A79B",
"!. c #ACA695",
"~. c #B8A499",
"^. c #B5A692",
"/. c #9B9BA3",
"(. c #ADA7A5",
"). c #B3ABA5",
"_. c #BBACA5",
"`. c #B4ABAA",
"'. c #BCADAB",
"]. c #B4A5A4",
"[. c #ACB6A6",
"{. c #B6B4AD",
"}. c #BBB2AE",
"|. c #B5BAAE",
" X c #B9B7A5",
".X c #ACABBC",
"XX c #B8AEB2",
"oX c #ABBBB8",
"OX c #B3B4B3",
"+X c #BBB4B4",
"@X c #BCB3BA",
"#X c #BAB7BA",
"$X c #C89A83",
"%X c #C39D90",
"&X c #C6A48B",
"*X c #CDA78C",
"=X c #D4A68A",
"-X c #CAAB94",
";X c #C6AB9C",
":X c #CBAC9E",
">X c #C6A995",
",X c #D5AC97",
"<X c #CAB59C",
"1X c #D8B39A",
"2X c #E2B49D",
"3X c #D89BA0",
"4X c #C4ACA1",
"5X c #CAAEA3",
"6X c #C3ACAC",
"7X c #CBB1A6",
"8X c #C2B3A9",
"9X c #CCB3AA",
"0X c #CDBAAD",
"qX c #C6B8A8",
"wX c #D4B9AA",
"eX c #C4B9B4",
"rX c #C4BBBB",
"tX c #C6B9B5",
"yX c #D6BCB5",
"uX c #E5B8A1",
"iX c #BCCAB9",
"pX c #B3C1B1",
"aX c #D8C0A9",
"sX c #CBC1BD",
"dX c #CAC3B4",
"fX c #D0C1B2",
"gX c #EACBAF",
"hX c #AFAFC1",
"jX c #B5B7C7",
"kX c #CABCC3",
"lX c #D6BCC5",
"zX c #BAC4C5",
"xX c #C7C4C2",
"cX c #D5C3C1",
"vX c #CCD6C7",
"bX c #D9DFDD",
"nX c #EAD4C8",
"mX c #E5E4E0",
/* pixels */
"rX].7Xs.k.P v Q c I P 7 &.g.h.-XkXhX.XhXjXhX.X@XXX'.yX6.9.q.u.Z ~ M M m P % t ^.}.}.",
"#X`.5Xs.&.R v K H ~ P & ' g.0 e   i z /.jXzX#X@XkX8XT.b.3.M.8.+.m m I m U 9 t L.}.}.",
"+X}.4Xs.' ) v M M m C 7 &.g.l.*X0X X). X|.[.[.{.).W.h b.t 3.9 U m b I G P % e T.}.}.",
"OXeX4Xs.7 +.v M M c R W ' 8 h.gX6 - X 2 2 2 3 4 4 r . f.o.l.g.O.~ n m P P + w wX}.}.",
"OXeX4X4.7 +.b M b Z ~ P ' 7...h.&.@.,.z.z.a.2.t 2.j.| k.h.$.{ o R b m m Y 0 t T.8X}.",
"OX+X5X4.9 O.M M M c R ] 8.C.7.&.=.;.+.O.$.&.h.k.| 7.0.$.V.=.i.Q m R I @ U  .; q 8X}.",
"OX`.9X4...W M M / @ R W E ' ' h.~ +.%.*.8.8.&.$.M.u.B.} %.{ S c M I I @ P 9 ; r 8X}.",
"#X).0X4.7.Y H M c M { $ % 7.h.$.h.h.7.7.3.3.9.j.7.] m.%.=.-.B S I @ b I U % t :X8X}.",
"OX{.9Xs.7.Y I b Q M C % T &...v.s c.F.3 G.h h s d 2.a.| h.O.W m M M I @ W E t 7XtX(.",
"OX{.qXs.7.Y I b H b P P ] $.h.P.yX}.I.j !.~.0XfXwXaX*Xl.h.( U @ M M m m P 7 2.;X* +X",
"OX{.qXs.7.Y Q b M n R R ] ] N.1X~.+XrXR.sX_.4X;XT.,X$XX.] Y ~ R R I @ m < 8 J.:Xa `.",
"OX{.qXs.7.Y ! M M M R P T ] 8.$X5XcXnX9XyX;X:X,X,X2X=XN.u.R Z n n I m ~ P 0 a.q _.a ",
"OX{.qXg 7.Y ! H M I R $ T $.$.Z.b.w.r.w w.9.9.7.$.$.8.} i.S S / Z Q n G P  .b.. _.a ",
"OX{.8Xg a.Y ! K b Z R # T 8. .$.$.q.0.0.M.8.0.$.V.%.%.%.V.Z A / R I n $ P h.n.3 a `.",
"oX{.8Xg 3.Y ~ K M M R $ T $.] *.*.#.>.#.Y Y #.<.<.*.*.O.m.P C P n @ ~ O.)  .e - * +X",
"OX{.qXg 7.Y ~ Q H M R C T T T N.g. . .g.g.h.g. . .&.h. .*.P P m ~ o m P P &.n.:XtX(.",
"OX}.9Xd.X.#.Q K b Q P $ C T ] k.5.w.H.b.r.w.b.w.5.j...*.I H b M v m R @ Y X.5.9X'.}.",
"+X}.9Xx.X.#.Q K M Z P T T P 8.P.5X6X'.6XyXcXY.3 9X%Xw 3.O._ ^ o M M Q $ ] 7.d.9X].@X",
"+X}.7Xx.X.#.Q K H b C ] T $ m.2X!.iXvX[.Q.iXvX|.eX_.T.n.; > # *.I m Q m O.j.d.5Xj U.",
"+X}.7Xd.X.#.Q K I m C R T # *.=X<XpX X[.iXvXI.5 ).^.3 4.6.' $.& R m R m $.j.5.5XE.+X",
"+X'.7Xd.X.#.Q K H Z m C T : ] S.@.,.,.o.u f.b.d.d.a.z.7.7 ~ @ Q I b I m $.j.4.5XtXrX",
"+X'.7Xd.X.#.Q K M I C $ T ] ] %.1.:.;.-.#.@.>.&.| N.< >.) m _ v I b I m $.7.5.7X~.R.",
"+X}.9Xx.X.#.Q K M R P : T W ] =.;.:.:.;.#.#.@.@.,.,.@.@.J ` L J H b I P $.7.d.yXcXrX",
"+X}.7Xx.X.#.Q K M R P P T : W M.=.%.u.u.$.7.j.3.| l...m.U v b b I b Q I $.7.x.aX~.`.",
"+XeX5Xs C.O.~ b v I R P C ] $.9.w.e.e.e.e.D.D.H.r.t.q.p.} x V :.S M H G O.7.G.wX_.`.",
"`.'.5Xs.7.) H ^ H M P T : P M.P.6X+X@X@X@XkXkXlXf p 3Xt.y.i.D x N c I ~ *.| 4.~.cXeX",
"+X'.7Xx.7.O.c _ Q n C W : # N.1X{.oXoXoXpXzXzXxX+X_.nXe 6.8 T T I m m m $.k.G.5XU.(.",
"#X`.7Xs k.<.m Q M n P ] T # *.P.qX X|.|.|.|.|.|.dX4 gXf.6 u + < $ R ~ P $.7.; q l R.",
"(.].wXe l.#.~ M M m C T T : O.N.7.7.7.6.6.2.2.2.t y o.o.>.+ 1 J ! R m @ ] v.G.4X~.XX",
"(.eXwX4.k.) ~ H H I C $ : ] $.%.-.-.=.u.8.h.h.k.A.9 h.>.& ! ! J m c I O.*.' d ~.eXrX",
"@XsXY.b.g.) I M M I P : : ] $.*._ _ +.#.&.&.7.7.' A...8.} S S N Q b b P $.7.n.9X].+X",
"+X`.3 x.7.*.I H v M R W T T ] h.&.&.3.3.a.a.5.5.9.9.Z.q.} F x D n Q I @ $.C.e = eX}.",
"+XrX9Xd j.m.O ! v R P : T ] $.v.k j l j k F.l c.e.r.Z.[ [ A A Z Z M M P &.X.d.;X8XrX",
"* ).~.x.k.@.m H H I C P T T M.$XdXbXxXOXmXE.8X3 5X:X,Xv...W R C Z Z M P &.X.d.;X_.`.",
"xX}.0Xx.0 B.~ O I m C T T : N.uXeXiX, vX[. X X X^.>X&Xo.0 0 U < m Z M P &.X.d.;XtXxX",
"`.rXW.s.l.$ H H M m C W T : 8.$XnXdXqX!.dX!.0X>X<X1X*Xl.9 U < G m Z M P &.&.d.;Xa U.",
"(.a 0Xx.| O.H H m I C : T ] $.C.t d G.x.s n.t d.X...&.W G H b ^ M Z I P &.X.d.;X_.xX",
"rX+X4Xt C.P Q c H ~ C % T &.&.&.C.6.3.3.j.9 ..7.M.8.u.-./ K o b M Z M P &.X.d.;X_.).",
"OX(.5XG.' < I b m ~ P % T 7.8.8.T u.M.] M.Z.S.[ $.} %.;./ ;.B / M Z M P &.X.d.;XtXsX",
"+X}.= s.g.U +.H c Q R P ] $.$.8.Z.0.$.M...0.[ M.0.M.u.%.Z ;.b c M Z M P &.X.d.;X3 E.",
"+X`.a x.3.W ^ H m R $ : T 8.E C.j.a.5.n.2.d.4.a.2.3.C.9 0 &.7 $ @ { n R O.&.d.5X8X}.",
"XXsXK.G.X.Y _ ! m Q P W ] M.8.P.*X-X>XwX&X-X>X-X-X&X&Xz.y g.9 E $ %.m W &.&.d.:X8X}."
};
