/* XPM */
static char *_e48a3f2d4e54b91d4a4b423a1529e50e4G0Bc0opJg227jr[] = {
/* columns rows colors chars-per-pixel */
"42 42 3 1 ",
"  c #464646",
". c #B4B4B4",
"X c #99D9EA",
/* pixels */
"..........................................",
".......    ....    .........XX.......  ...",
"... ....... .............. XX.....XX......",
"..... ....X..  X           .........X.....",
"........XXX....X...XXX..X..      ....X....",
".....    ................X....  . XX..X ..",
"......... X .. .X..............X .X  .. ..",
".....X.......X..X... ......X..XX..X..  ...",
".....X.......X...X........XX.XX..X........",
"....X.....X..X..... .....X.......X....X. .",
"....X....X.......................X....XX .",
"... X. ...... ...XX........XXX..X....XX . ",
"...X  .. X....X.XX.....XXX....XXX.. X.X . ",
"...X....X....XXX.......XX.......XXXX  X  .",
"........X....XX ... . ..X .....XX.XX  X  .",
"........X..XX.X....     X...X.....  .X....",
"...........X..X....X   . ...XXXXXX...X....",
"....X....X........X.... .. ....X..........",
"....X...XX..X.....X..X..... ...X........ .",
"....XX.X....X..X.X...X. .. ....X..........",
"... .X.X....XX.X.X....XXX  ....XX..X..X...",
"... .X..X. ..X XX......  XX.....X..X..X...",
"........X...XX.XX...   ....X.....  X.  X..",
"................X      ....X......X... X..",
"................  ..... XXX...........XX..",
"....    X............XXX  ... ...X....X...",
"........  X..........XXXXXX  .X.X.........",
".......X X   X ....X..... X.XX..X......  .",
"......XX.X....X....X. .....XX. X.. .X.....",
"... .XXX.X....X. ...XX....XX.XX..  .X.....",
"... .X.X......X... ..X..XX XX ....XXX.....",
".. .X...X..X...X..    XX   XXX..XXX.... ..",
"....X...X.XX...X  .XXXX....X..XX .... ....",
" ...XX..XXX...XXXXXXX.. .......X..........",
"........X.......XX .......................",
"......XX..... ..X.X.........X.....  .... .",
". ...XXXX........X.. .....XX.X............",
".....X..XX......X .....X.X....X...........",
".........X....XX.... .X.X.XX...... .......",
".. ..X..X.....XX....XX. ....XXX.... .... .",
".. ..XX.X.....XX...X..........XXX.........",
"........  .........X......................"
};
