/* XPM */
static char *_ef09540a24b4a56bbfcb781cea8d20aPGwkadMaLnk3LeFi[] = {
/* columns rows colors chars-per-pixel */
"42 42 2 1 ",
"  c #464646",
". c #B4B4B4",
/* pixels */
"  ..   ..   ..   ..   ..   ..   ..   ..   ",
"  ..   ..   ..   ..   ..   ..   ..   ..   ",
"  ..   ..   ..   ..   ..   ..   ..   ..   ",
"..........................................",
"..........................................",
"  ..   ..   ..   ..   ..   ..   ..   ..   ",
"  ..   ..   ..   ..   ..   ..   ..   ..   ",
"  ..   ..   ..   ..   ..   ..   ..   ..   ",
"..........................................",
"..........................................",
"  ..   ..   ..   ..   ..   ..   ..   ..   ",
"  ..   ..   ..   ..   ..   ..   ..   ..   ",
"  ..   ..   ..   ..   ..   ..   ..   ..   ",
"..........................................",
"..........................................",
"  ..   ..   ..   ..   ..   ..   ..   ..   ",
"  ..   ..   ..   ..   ..   ..   ..   ..   ",
"  ..   ..   ..   ..   ..   ..   ..   ..   ",
"..........................................",
"..........................................",
"  ..   ..   ..   ..   ..   ..   ..   ..   ",
"  ..   ..   ..   ..   ..   ..   ..   ..   ",
"  ..   ..   ..   ..   ..   ..   ..   ..   ",
"..........................................",
"..........................................",
"  ..   ..   ..   ..   ..   ..   ..   ..   ",
"  ..   ..   ..   ..   ..   ..   ..   ..   ",
"  ..   ..   ..   ..   ..   ..   ..   ..   ",
"..........................................",
"..........................................",
"  ..   ..   ..   ..   ..   ..   ..   ..   ",
"  ..   ..   ..   ..   ..   ..   ..   ..   ",
"  ..   ..   ..   ..   ..   ..   ..   ..   ",
"..........................................",
"..........................................",
"  ..   ..   ..   ..   ..   ..   ..   ..   ",
"  ..   ..   ..   ..   ..   ..   ..   ..   ",
"  ..   ..   ..   ..   ..   ..   ..   ..   ",
"..........................................",
"..........................................",
"  ..   ..   ..   ..   ..   ..   ..   ..   ",
"  ..   ..   ..   ..   ..   ..   ..   ..   "
};
